<?xml version="1.0" encoding="UTF-8"?>
<svg version="1.1" xmlns="http://www.w3.org/2000/svg" width="818" height="818">
<path d="M0 0 C269.94 0 539.88 0 818 0 C818 269.94 818 539.88 818 818 C548.06 818 278.12 818 0 818 C0 548.06 0 278.12 0 0 Z " fill="#020000" transform="translate(0,0)"/>
<path d="M0 0 C269.94 0 539.88 0 818 0 C818 269.94 818 539.88 818 818 C548.06 818 278.12 818 0 818 C0 548.06 0 278.12 0 0 Z M357 56 C355.87722656 56.17160645 354.75445312 56.34321289 353.59765625 56.52001953 C276.67391088 68.73308296 208.23770506 105.6150596 153.4375 160.375 C152.55642578 161.24382812 151.67535156 162.11265625 150.76757812 163.0078125 C144.73838371 169.02365815 139.306273 175.34400661 134 182 C133.04727493 183.13903238 132.09092883 184.27505931 131.12890625 185.40625 C116.73207677 202.61888932 104.26230629 222.07079481 94 242 C93.47986328 242.99700928 93.47986328 242.99700928 92.94921875 244.01416016 C90.54575988 248.63541745 88.2395653 253.29725341 86 258 C85.67821777 258.67401855 85.35643555 259.34803711 85.02490234 260.04248047 C55.88164572 321.73459557 45.67501708 393.55016038 56 461 C56.17160645 462.12277344 56.34321289 463.24554688 56.52001953 464.40234375 C68.73308296 541.32608912 105.6150596 609.76229494 160.375 664.5625 C161.67824219 665.88411133 161.67824219 665.88411133 163.0078125 667.23242188 C169.02365815 673.26161629 175.34400661 678.693727 182 684 C183.13903238 684.95272507 184.27505931 685.90907117 185.40625 686.87109375 C202.61888932 701.26792323 222.07079481 713.73769371 242 724 C242.66467285 724.34675781 243.3293457 724.69351563 244.01416016 725.05078125 C248.63541745 727.45424012 253.29725341 729.7604347 258 732 C259.01102783 732.48267334 259.01102783 732.48267334 260.04248047 732.97509766 C321.73459557 762.11835428 393.55016038 772.32498292 461 762 C462.68416016 761.74259033 462.68416016 761.74259033 464.40234375 761.47998047 C541.32608912 749.26691704 609.76229494 712.3849404 664.5625 657.625 C665.44357422 656.75617187 666.32464844 655.88734375 667.23242188 654.9921875 C673.26161629 648.97634185 678.693727 642.65599339 684 636 C684.95272507 634.86096762 685.90907117 633.72494069 686.87109375 632.59375 C701.26792323 615.38111068 713.73769371 595.92920519 724 576 C724.34675781 575.33532715 724.69351563 574.6706543 725.05078125 573.98583984 C727.45424012 569.36458255 729.7604347 564.70274659 732 560 C732.48267334 558.98897217 732.48267334 558.98897217 732.97509766 557.95751953 C762.11835428 496.26540443 772.32498292 424.44983962 762 357 C761.74259033 355.31583984 761.74259033 355.31583984 761.47998047 353.59765625 C749.26691704 276.67391088 712.3849404 208.23770506 657.625 153.4375 C656.75617187 152.55642578 655.88734375 151.67535156 654.9921875 150.76757812 C648.97634185 144.73838371 642.65599339 139.306273 636 134 C634.86096762 133.04727493 633.72494069 132.09092883 632.59375 131.12890625 C615.38111068 116.73207677 595.92920519 104.26230629 576 94 C575.00299072 93.47986328 575.00299072 93.47986328 573.98583984 92.94921875 C569.36458255 90.54575988 564.70274659 88.2395653 560 86 C559.32598145 85.67821777 558.65196289 85.35643555 557.95751953 85.02490234 C496.26540443 55.88164572 424.44983962 45.67501708 357 56 Z " fill="#FFFFFF" transform="translate(0,0)"/>
<path d="M0 0 C0.65707947 0.00215515 1.31415894 0.0043103 1.9911499 0.00653076 C12.42099591 0.06125985 22.15011229 0.65514156 32.25 3.3125 C33.01892578 3.50585938 33.78785156 3.69921875 34.58007812 3.8984375 C70.67701684 13.15845978 102.41792723 35.5625619 122.25 67.3125 C122.73146484 68.08271484 123.21292969 68.85292969 123.70898438 69.64648438 C134.81235761 87.65986152 140.63919329 104.38443982 143.25 125.3125 C143.38148438 126.22 143.51296875 127.1275 143.6484375 128.0625 C148.31845399 164.41289862 137.59280259 203.23726884 115.25 232.25 C108.45687429 240.78907491 100.65085076 249.3420953 92.25 256.3125 C91.59 256.3125 90.93 256.3125 90.25 256.3125 C89.92 257.3025 89.59 258.2925 89.25 259.3125 C69.12275499 276.63333177 42.08588772 285.3043875 16.25 288.3125 C15.52796387 288.39661133 14.80592773 288.48072266 14.06201172 288.56738281 C-23.50444854 292.59838564 -63.1571834 280.38535711 -92.5625 256.8125 C-94.30511413 255.32814379 -96.03551736 253.82926189 -97.75 252.3125 C-98.41128906 251.735 -99.07257813 251.1575 -99.75390625 250.5625 C-123.44687823 228.40289364 -139.86880852 195.40002489 -143.75 163.3125 C-143.91628906 162.04599609 -143.91628906 162.04599609 -144.0859375 160.75390625 C-147.95923549 124.69036145 -140.20327791 89.20055878 -117.75 60.3125 C-117.19828125 59.56871094 -116.6465625 58.82492188 -116.078125 58.05859375 C-92.20043558 26.27852616 -57.53554098 6.53887163 -18.28320312 0.71606445 C-12.19043339 0.02014486 -6.12681568 -0.02752388 0 0 Z " fill="#040001" transform="translate(411.75,145.6875)"/>
<path d="M0 0 C0.33 0 0.66 0 1 0 C1 127.05 1 254.1 1 385 C-126.38 385 -253.76 385 -385 385 C-385 384.67 -385 384.34 -385 384 C-383.82703369 383.90295776 -383.82703369 383.90295776 -382.63037109 383.80395508 C-291.93730925 376.11977929 -204.06545528 343.55286363 -136.40625 281.1953125 C-134.42211147 279.38510819 -132.40796757 277.63244476 -130.37109375 275.8828125 C-125.22225649 271.38642515 -120.39623566 266.58025063 -115.5625 261.75 C-114.67240234 260.87214844 -113.78230469 259.99429687 -112.86523438 259.08984375 C-107.55018559 253.78644226 -102.65033508 248.30854895 -97.95874023 242.44677734 C-96.39862144 240.49794142 -94.81560258 238.59259878 -93.171875 236.71484375 C-35.71473565 170.82447911 -7.38453148 85.89196981 0 0 Z " fill="#101010" transform="translate(817,433)"/>
<path d="M0 0 C0.33 0 0.66 0 1 0 C1.06469482 0.78197754 1.12938965 1.56395508 1.19604492 2.36962891 C8.88022071 93.06269075 41.44713637 180.93454472 103.8046875 248.59375 C105.61489181 250.57788853 107.36755524 252.59203243 109.1171875 254.62890625 C113.61357485 259.77774351 118.41974937 264.60376434 123.25 269.4375 C124.12785156 270.32759766 125.00570312 271.21769531 125.91015625 272.13476562 C131.21355774 277.44981441 136.69145105 282.34966492 142.55322266 287.04125977 C144.50205858 288.60137856 146.40740122 290.18439742 148.28515625 291.828125 C214.17552089 349.28526435 299.10803019 377.61546852 385 385 C385 385.33 385 385.66 385 386 C257.95 386 130.9 386 0 386 C0 258.62 0 131.24 0 0 Z " fill="#101010" transform="translate(0,432)"/>
<path d="M0 0 C127.05 0 254.1 0 385 0 C385 127.38 385 254.76 385 386 C384.67 386 384.34 386 384 386 C383.90295776 384.82703369 383.90295776 384.82703369 383.80395508 383.63037109 C376.11977929 292.93730925 343.55286363 205.06545528 281.1953125 137.40625 C279.38510819 135.42211147 277.63244476 133.40796757 275.8828125 131.37109375 C271.38642515 126.22225649 266.58025063 121.39623566 261.75 116.5625 C260.87214844 115.67240234 259.99429687 114.78230469 259.08984375 113.86523438 C253.78644226 108.55018559 248.30854895 103.65033508 242.44677734 98.95874023 C240.49794142 97.39862144 238.59259878 95.81560258 236.71484375 94.171875 C170.82447911 36.71473565 85.89196981 8.38453148 0 1 C0 0.67 0 0.34 0 0 Z " fill="#101010" transform="translate(433,0)"/>
<path d="M0 0 C127.38 0 254.76 0 386 0 C386 0.33 386 0.66 386 1 C385.21802246 1.06469482 384.43604492 1.12938965 383.63037109 1.19604492 C292.93730925 8.88022071 205.06545528 41.44713637 137.40625 103.8046875 C135.42211147 105.61489181 133.40796757 107.36755524 131.37109375 109.1171875 C126.22225649 113.61357485 121.39623566 118.41974937 116.5625 123.25 C115.67240234 124.12785156 114.78230469 125.00570312 113.86523438 125.91015625 C108.55018559 131.21355774 103.65033508 136.69145105 98.95874023 142.55322266 C97.39862144 144.50205858 95.81560258 146.40740122 94.171875 148.28515625 C36.71473565 214.17552089 8.38453148 299.10803019 1 385 C0.67 385 0.34 385 0 385 C0 257.95 0 130.9 0 0 Z " fill="#101010" transform="translate(0,0)"/>
<path d="M0 0 C0.65707947 0.00215515 1.31415894 0.0043103 1.9911499 0.00653076 C12.42099591 0.06125985 22.15011229 0.65514156 32.25 3.3125 C33.01892578 3.50585938 33.78785156 3.69921875 34.58007812 3.8984375 C70.67701684 13.15845978 102.41792723 35.5625619 122.25 67.3125 C122.73146484 68.08271484 123.21292969 68.85292969 123.70898438 69.64648438 C134.81235761 87.65986152 140.63919329 104.38443982 143.25 125.3125 C143.38148438 126.22 143.51296875 127.1275 143.6484375 128.0625 C148.31845399 164.41289862 137.59280259 203.23726884 115.25 232.25 C108.45687429 240.78907491 100.65085076 249.3420953 92.25 256.3125 C91.59 256.3125 90.93 256.3125 90.25 256.3125 C89.92 257.3025 89.59 258.2925 89.25 259.3125 C69.12275499 276.63333177 42.08588772 285.3043875 16.25 288.3125 C15.52796387 288.39661133 14.80592773 288.48072266 14.06201172 288.56738281 C-23.50444854 292.59838564 -63.1571834 280.38535711 -92.5625 256.8125 C-94.30511413 255.32814379 -96.03551736 253.82926189 -97.75 252.3125 C-98.41128906 251.735 -99.07257813 251.1575 -99.75390625 250.5625 C-123.44687823 228.40289364 -139.86880852 195.40002489 -143.75 163.3125 C-143.91628906 162.04599609 -143.91628906 162.04599609 -144.0859375 160.75390625 C-147.95923549 124.69036145 -140.20327791 89.20055878 -117.75 60.3125 C-117.19828125 59.56871094 -116.6465625 58.82492188 -116.078125 58.05859375 C-92.20043558 26.27852616 -57.53554098 6.53887163 -18.28320312 0.71606445 C-12.19043339 0.02014486 -6.12681568 -0.02752388 0 0 Z M-84.75 58.3125 C-85.41257812 58.9003125 -86.07515625 59.488125 -86.7578125 60.09375 C-108.17191306 79.86061206 -119.37023072 111.86635837 -121.1640625 140.3984375 C-122.1662443 171.09651866 -111.34139135 201.21873052 -90.75 224 C-90.0075 224.78761719 -89.265 225.57523438 -88.5 226.38671875 C-86.75 228.3125 -86.75 228.3125 -85.75 230.3125 C-85.069375 230.704375 -84.38875 231.09625 -83.6875 231.5 C-81.18088619 233.04663405 -79.3381215 234.52859696 -77.1875 236.5 C-68.8344551 244.41713946 -68.8344551 244.41713946 -58.75 248.3125 C-58.75 248.9725 -58.75 249.6325 -58.75 250.3125 C-32.11511032 264.14136745 -0.19499627 270.0356136 29.24853516 261.94775391 C35.73884626 259.88776495 41.95760855 257.05706529 48.15429688 254.25537109 C49.9312628 253.45590203 51.72210347 252.68738429 53.515625 251.92578125 C66.84277785 246.19510553 77.19441698 237.63985553 87.25 227.3125 C87.745 226.87421875 88.24 226.4359375 88.75 225.984375 C107.59609817 208.70878501 119.24448236 178.79570622 120.36669922 153.703125 C120.99525263 134.99037061 119.31749035 118.61374241 112.08251953 101.30957031 C111.23870612 99.28540793 110.42944908 97.2494829 109.62109375 95.2109375 C104.13298158 81.69666245 96.36509977 70.86969329 86.25 60.3125 C85.55390625 59.55324219 84.8578125 58.79398438 84.140625 58.01171875 C78.18981294 51.72427316 71.48709476 46.99482341 64.25 42.3125 C63.63326416 41.90523682 63.01652832 41.49797363 62.38110352 41.07836914 C57.54760239 37.95144228 52.61869439 35.47332146 47.3125 33.25 C46.49563721 32.90638428 45.67877441 32.56276855 44.8371582 32.20874023 C0.17142171 14.05911338 -50.37630034 25.48502213 -84.75 58.3125 Z " fill="#FEFEFE" transform="translate(411.75,145.6875)"/>
<path d="M0 0 C3.79016548 4.43990814 6.71116135 9.28854214 9.75 14.25 C15.25338135 23.09516939 20.80858836 30.48887793 29 37 C30.71526464 38.84857536 32.35095094 40.75396097 33.98828125 42.671875 C36.23224283 45.26877035 38.54936222 47.78855202 40.875 50.3125 C44.16432238 53.91391171 47.32017636 57.57307275 50.375 61.375 C54.33948307 66.3022861 58.55796598 70.93036205 62.92724609 75.49755859 C64.94481302 77.63297874 66.78890106 79.60986669 68.19262695 82.20410156 C70.78968727 86.22159916 74.11488749 89.33964069 77.51953125 92.6796875 C78.25572189 93.41067657 78.99191254 94.14166565 79.75041199 94.89480591 C82.09972668 97.22635397 84.45561484 99.5511069 86.8125 101.875 C89.15782482 104.19257949 91.50162813 106.511646 93.842453 108.83377075 C95.29660034 110.27580127 96.75341178 111.71515209 98.21333313 113.15133667 C101.89433356 116.79648652 105.38874131 120.50209024 108.67900085 124.50546265 C110.84475082 126.95572481 113.37891618 128.81093289 116 130.75 C117.15295726 131.61376502 118.30527999 132.47837754 119.45703125 133.34375 C120.04436035 133.78203125 120.63168945 134.2203125 121.23681641 134.671875 C124.08878957 136.82013504 126.88678363 139.03559277 129.6875 141.25 C135.87406886 146.12585512 142.08932988 150.96415026 148.31152344 155.79443359 C152.44936586 159.00872939 156.574377 162.23803868 160.68383789 165.48852539 C166.11981443 169.78629941 171.61678343 173.95475215 177.25390625 177.98828125 C180.23121943 180.1693855 183.10851871 182.45650475 186 184.75 C192.12734214 189.56360243 198.64936092 193.64938761 205.26928711 197.74682617 C209.19601871 200.18855649 212.9880747 202.61553792 216.5625 205.5625 C228.29558895 215.13670059 242.74929699 223.05289456 256.9375 228.1875 C261.78337518 229.98121408 266.19430798 232.12662812 270.72119141 234.61303711 C302.18834097 251.87166586 337.20747015 261.54127936 371.5 271.4375 C372.57411133 271.74904022 373.64822266 272.06058044 374.75488281 272.38156128 C377.86573879 273.28142541 380.97923922 274.17147211 384.09375 275.05859375 C385.01474487 275.32591309 385.93573975 275.59323242 386.88464355 275.86865234 C392.77510954 277.53139773 398.59346676 278.64923898 404.6607666 279.47059631 C405.43271362 279.64529953 406.20466064 279.82000275 407 280 C407.33 280.66 407.66 281.32 408 282 C406.31551982 282.79807198 404.62723873 283.58812301 402.9375 284.375 C401.99777344 284.81585937 401.05804687 285.25671875 400.08984375 285.7109375 C388.02322885 290.74504991 376.52266176 290.11172792 364.25390625 286.47265625 C363.34555527 286.20739639 362.43720428 285.94213654 361.50132751 285.6688385 C351.46479576 282.65793843 341.77025231 278.8617886 332.0625 274.9375 C330.18315967 274.18594016 328.30368168 273.4347245 326.42407227 272.68383789 C311.83757326 266.8342363 297.37808988 260.71667783 283.01611328 254.33691406 C280.30658883 253.13589772 277.59102322 251.95064767 274.87109375 250.7734375 C258.36279138 243.60062379 242.46772777 235.43669813 226.86450195 226.46606445 C222.88154038 224.1772292 218.91913269 221.91998571 214.78515625 219.9140625 C210.86698534 217.99420841 207.28995823 215.70373719 203.6875 213.25 C203.04087402 212.81316895 202.39424805 212.37633789 201.72802734 211.92626953 C193.39831527 206.27080091 185.3290585 200.56670536 177.97265625 193.6640625 C174.46684807 190.70668768 171.22512615 189.69936534 166.75 188.875 C165.41195312 188.62363281 165.41195312 188.62363281 164.046875 188.3671875 C163.37140625 188.24601563 162.6959375 188.12484375 162 188 C164.87626136 191.95485937 168.15170331 195.01183448 171.84765625 198.1640625 C174.62479843 200.53294966 177.33129699 202.97851603 180.04296875 205.421875 C181.988602 207.06522935 181.988602 207.06522935 184.30078125 208.37890625 C187.71282069 210.42810505 190.82087501 212.79863812 194 215.1875 C200.20499388 219.78312077 206.52447687 224.02039704 213.18896484 227.93261719 C215.1516344 229.08936986 217.10068422 230.26749951 219.05078125 231.4453125 C237.29342306 242.34724136 256.42652397 251.97835767 276.07763672 260.07275391 C280.00914642 261.69219082 283.83593528 263.39536443 287.6171875 265.34301758 C292.88156743 267.9906339 298.25053305 270.26759224 303.7109375 272.4765625 C304.70946747 272.88405731 305.70799744 273.29155212 306.73678589 273.71139526 C309.94779413 275.02022964 313.16121356 276.32300385 316.375 277.625 C318.59085481 278.52530572 320.80667497 279.42569673 323.02246094 280.32617188 C329.34483572 282.89273919 335.67125305 285.4491896 342 288 C342.83043823 288.3347937 343.66087646 288.6695874 344.51647949 289.01452637 C349.08917118 290.85618019 353.66702682 292.68408047 358.25 294.5 C359.28560059 294.91330566 360.32120117 295.32661133 361.38818359 295.75244141 C367.594215 298.18805878 373.83615459 300.21647873 380.25195312 302.03295898 C384.02778683 303.36167943 385.68392085 304.77403261 388 308 C388.33 308.99 388.66 309.98 389 311 C383.13422876 311.24219446 377.88934724 310.33992851 372.16796875 309.09375 C371.22703873 308.89366333 370.2861087 308.69357666 369.31666565 308.48742676 C366.27133291 307.83500195 363.22916153 307.16932069 360.1875 306.5 C359.14911987 306.27280273 358.11073975 306.04560547 357.04089355 305.81152344 C332.78779225 300.48088314 309.84330928 293.30501801 286.76416016 284.1015625 C284.40292474 283.16057202 282.03750659 282.23231099 279.66796875 281.3125 C269.97416315 277.51343667 260.4799914 273.29828728 251 269 C250.04939697 268.57315918 250.04939697 268.57315918 249.07958984 268.13769531 C232.23626862 260.56430833 216.0928072 251.82572929 200.3125 242.25 C199.72135406 241.89214417 199.13020813 241.53428833 198.52114868 241.16558838 C191.99890026 237.20710007 185.6203566 233.12340909 179.40600586 228.69726562 C176.07315344 226.34617582 172.66912151 224.109181 169.26391602 221.86474609 C152.18396351 210.60452391 136.62156076 198.25453398 121.68603516 184.29199219 C118.36740896 181.20730028 114.96875318 178.28071531 111.4375 175.4375 C102.33906413 168.09582264 93.9670614 160.05186471 85.6875 151.8125 C85.02983643 151.15950928 84.37217285 150.50651855 83.69458008 149.83374023 C76.85268164 142.96937251 70.60997074 135.64162916 64.5 128.125 C63.93539062 127.43172607 63.37078125 126.73845215 62.7890625 126.02416992 C59.15624483 121.52761637 55.72764113 116.95560314 52.5625 112.11328125 C51.00196998 109.88138735 51.00196998 109.88138735 48.73046875 107.8046875 C45.12791952 104.10421491 42.26085917 100.04266642 39.3125 95.8125 C38.69890625 94.93553467 38.0853125 94.05856934 37.453125 93.1550293 C32.5007432 85.96231507 28.21905503 78.52776764 24.1015625 70.8359375 C22.52210462 67.89783642 20.82023676 65.1525096 18.875 62.4375 C8.37727769 47.11969674 -0.23650724 25.30627495 -0.0625 6.6875 C-0.05347656 5.43324219 -0.04445313 4.17898438 -0.03515625 2.88671875 C-0.01775391 1.45779297 -0.01775391 1.45779297 0 0 Z " fill="#FEFEFE" transform="translate(126,297)"/>
<path d="M0 0 C18.53873994 14.70034788 30.28388552 34.86051945 33.12890625 58.53515625 C34.51287927 83.2071369 27.40814182 104.55664868 11.87890625 123.78515625 C-3.79849861 140.61584146 -24.65201196 148.47177104 -47.3046875 149.57421875 C-54.24352743 149.49821831 -61.02954473 148.64781362 -67.87109375 147.53515625 C-69.42957031 147.29345703 -69.42957031 147.29345703 -71.01953125 147.046875 C-90.6441046 143.09507735 -106.44921685 129.37555419 -117.87109375 113.53515625 C-123.59913282 104.69617884 -126.94706928 95.61836146 -129.87109375 85.53515625 C-124.44540584 85.28695461 -119.02305175 85.1060691 -113.59301758 84.98583984 C-111.74868194 84.93570884 -109.9047407 84.86757851 -108.06176758 84.78076172 C-92.70947403 84.07595753 -92.70947403 84.07595753 -88.17944336 87.67163086 C-86.4077764 90.22669912 -85.15456547 92.71211594 -83.87109375 95.53515625 C-76.06328318 105.30500997 -64.51974196 109.44651433 -52.34375 110.8203125 C-38.61908677 111.3319288 -27.17303403 106.39974832 -17.05859375 97.34765625 C-7.40397521 87.06641584 -5.18234737 73.78145739 -5.49609375 60.28125 C-6.09897248 49.41005455 -11.80934278 39.97612549 -19.81640625 32.7890625 C-30.15098598 24.66324589 -40.71833925 21.44930015 -53.79296875 22.84765625 C-66.54656515 24.69791894 -76.4152221 28.34069417 -84.87109375 38.53515625 C-87.34609375 43.48515625 -87.34609375 43.48515625 -89.87109375 48.53515625 C-103.07109375 48.53515625 -116.27109375 48.53515625 -129.87109375 48.53515625 C-127.84707239 32.34298541 -118.99934178 19.10930969 -107.87109375 7.53515625 C-107.21367187 6.83777344 -106.55625 6.14039063 -105.87890625 5.421875 C-102.97723435 2.41434811 -100.62978218 0.37500121 -96.87109375 -1.46484375 C-95.66165753 -2.13265285 -94.45598051 -2.80730956 -93.25390625 -3.48828125 C-63.64619524 -19.94981922 -28.03328875 -20.60360732 0 0 Z " fill="#FEFEFE" transform="translate(459.87109375,223.46484375)"/>
<path d="M0 0 C5.04316069 16.01945162 -9.71262847 40.71630544 -16.70849609 54.58227539 C-18.47427649 57.88785634 -20.43255668 61.06197867 -22.38647461 64.25878906 C-24.87094542 68.4796452 -27.09266543 72.83160576 -29.3527832 77.17553711 C-35.10167441 88.21968104 -40.88591082 98.48599259 -49 108 C-50.73305761 110.210471 -52.42659408 112.45036282 -54.125 114.6875 C-54.96900686 115.78075564 -55.81403262 116.87322556 -56.66015625 117.96484375 C-58.0583903 119.77857974 -59.4453747 121.60120774 -60.80859375 123.44140625 C-65.32076906 129.38059468 -70.44228206 134.65071932 -75.6875 139.9375 C-76.42492432 140.68418945 -77.16234863 141.43087891 -77.92211914 142.20019531 C-81.45742587 145.7150482 -84.69917953 148.46558794 -89 151 C-91.37415527 153.14952794 -93.58711976 155.44806958 -95.8125 157.75 C-100.71150417 162.72863194 -105.65264838 167.50204719 -111 172 C-112.03501253 172.8971028 -113.06874562 173.79568275 -114.1015625 174.6953125 C-129.24498596 187.8583761 -145.14360971 199.37034423 -161.79904175 210.51216125 C-165.40274255 212.92348669 -168.99088126 215.35554861 -172.56640625 217.80859375 C-182.11500456 224.32697269 -191.86702362 230.40489497 -201.875 236.1875 C-203.52556396 237.14221191 -203.52556396 237.14221191 -205.20947266 238.11621094 C-208.12253179 239.77837086 -211.04961495 241.40518257 -214 243 C-214.68094727 243.3707666 -215.36189453 243.7415332 -216.06347656 244.12353516 C-222.9783444 247.52715687 -229.58494368 244.67570915 -236.4375 242.4375 C-237.16904297 242.20353516 -237.90058594 241.96957031 -238.65429688 241.72851562 C-240.43780179 241.15732778 -242.21913583 240.57936877 -244 240 C-241.34297887 236.94584404 -238.0494425 235.13911842 -234.5625 233.1875 C-233.42941406 232.54167969 -232.29632813 231.89585937 -231.12890625 231.23046875 C-227.89250676 229.44430189 -224.59721131 227.80120746 -221.28125 226.16796875 C-215.02123348 223.05779392 -208.97064251 219.65182731 -202.9375 216.125 C-201.43993164 215.26455078 -201.43993164 215.26455078 -199.91210938 214.38671875 C-183.69048781 204.95878223 -183.69048781 204.95878223 -173 190 C-182.25115017 191.516582 -189.36722646 195.51057651 -197.046875 200.7578125 C-203.79798373 205.2923072 -210.98459841 209.06518101 -218.11328125 212.96484375 C-219.18449219 213.55652344 -220.25570312 214.14820313 -221.359375 214.7578125 C-222.32327148 215.2852002 -223.28716797 215.81258789 -224.28027344 216.35595703 C-227.06490082 218.03923179 -229.47004366 219.95959843 -232 222 C-233.55075351 222.95957424 -235.12570156 223.88117636 -236.72265625 224.76171875 C-237.59083984 225.24060547 -238.45902344 225.71949219 -239.35351562 226.21289062 C-240.24748047 226.69951172 -241.14144531 227.18613281 -242.0625 227.6875 C-242.96033203 228.18572266 -243.85816406 228.68394531 -244.78320312 229.19726562 C-254.22949951 234.37341465 -254.22949951 234.37341465 -258.1484375 233.546875 C-262.59661588 231.95489537 -266.82752388 230.24671791 -271 228 C-271 227.34 -271 226.68 -271 226 C-267.07482753 224.07227765 -263.14608181 222.15208485 -259.21411133 220.23828125 C-257.88176745 219.58856097 -256.55035672 218.93692302 -255.2199707 218.28320312 C-248.05876033 214.76598342 -240.94269309 211.50067501 -233.39428711 208.87792969 C-229.80520888 207.56189774 -226.51365889 205.8733349 -223.1875 204 C-222.09453613 203.38898438 -222.09453613 203.38898438 -220.97949219 202.765625 C-213.01569677 198.19102045 -205.38581 193.09582449 -197.75 188 C-196.80971451 187.37254883 -196.80971451 187.37254883 -195.85043335 186.73242188 C-183.5533637 178.50473409 -171.52142489 169.92168007 -159.625 161.125 C-158.42774292 160.24074341 -158.42774292 160.24074341 -157.20629883 159.33862305 C-154.80255928 157.56128223 -152.40075619 155.78136812 -150 154 C-148.91936279 153.19828369 -148.91936279 153.19828369 -147.81689453 152.38037109 C-129.69246715 138.95581932 -129.69246715 138.95581932 -112.55859375 124.3125 C-109.59701266 121.63577327 -106.55737477 119.06596353 -103.5 116.5 C-93.78927234 108.30507953 -84.7934194 99.81701052 -76.19921875 90.453125 C-73.5384418 87.55851982 -70.7871585 84.77360667 -68 82 C-61.74664866 75.38660722 -55.774672 68.63373185 -50.0703125 61.5390625 C-47.63968173 58.55810023 -45.09907591 55.69318953 -42.5078125 52.8515625 C-40.90296232 50.97521648 -40.90296232 50.97521648 -39.5546875 48.55078125 C-37.92984492 45.88489632 -36.13945671 43.83173992 -34 41.5625 C-29.80551763 36.98731907 -25.96700124 32.2252754 -22.16699219 27.32568359 C-19.10162161 23.38097366 -15.96683491 19.5095737 -12.75 15.6875 C-9.15724883 11.41287101 -5.67215091 7.07775001 -2.27734375 2.64453125 C-1 1 -1 1 0 0 Z " fill="#FEFEFE" transform="translate(687,302)"/>
<path d="M0 0 C6.64898911 4.47351341 7.49519726 12.76741815 9.0625 20.0625 C10.55432453 26.96256216 12.57409437 32.08856275 17.1875 37.5625 C17.62320313 38.13226562 18.05890625 38.70203125 18.5078125 39.2890625 C25.53805613 48.26478235 36.17800243 52.65218044 46.1875 57.5625 C44.47581563 66.94034522 44.47581563 66.94034522 43 70.125 C41.26913843 75.31758471 42.58524443 80.74807831 44.8125 85.625 C48.42925867 92.16650215 53.76825779 99.29189371 61.1875 101.5625 C67.50938075 102.234626 73.7481581 101.50730206 79.99609375 100.48828125 C82.94255995 100.58807244 84.11318005 101.51589925 86.1875 103.5625 C86.8125 106.9375 86.8125 106.9375 86.1875 110.5625 C81.78232734 115.28232785 77.44287065 117.18809296 70.9609375 117.93359375 C56.44202823 118.21729657 45.60277393 112.46872144 35.12109375 102.62109375 C27.24625022 94.20198458 24.59718829 85.5768985 23.35058594 74.33862305 C22.43888568 66.89027587 19.54013746 62.5605363 13.9375 57.5625 C8.76145168 52.50505181 5.54195261 46.73963274 2.18457031 40.42822266 C0.50229241 37.28033634 -1.24602119 34.17082215 -3 31.0625 C-3.61230469 29.9590625 -4.22460938 28.855625 -4.85546875 27.71875 C-7.82512514 22.92936404 -10.91334237 18.6928261 -15.875 15.8125 C-16.52597656 15.42578125 -17.17695313 15.0390625 -17.84765625 14.640625 C-19.81268415 13.56239896 -21.79986362 12.548647 -23.8125 11.5625 C-23.30680263 7.13764805 -21.91308108 4.74688057 -18.8125 1.5625 C-13.0332412 -2.33513965 -6.3583676 -2.97451532 0 0 Z " fill="#FEFEFE" transform="translate(232.8125,528.4375)"/>
<path d="M0 0 C3.94690233 2.14588865 5.74687974 4.41589451 7.8125 8.375 C7.8125 9.035 7.8125 9.695 7.8125 10.375 C-2.1875 15.375 -2.1875 15.375 -4.390625 16.2890625 C-6.71759436 17.69536138 -7.0747925 18.89765122 -8.1875 21.375 C-9.68781192 23.68360851 -11.20522554 25.9716113 -12.75 28.25 C-15.40716423 32.18150374 -18.04962748 36.11086534 -20.53125 40.15625 C-23.95038446 45.70926471 -27.2737046 50.73197655 -32.0625 55.25 C-37.85014634 60.76635041 -38.85904411 65.3563002 -40.19677734 73.13476562 C-42.0842821 84.05154883 -44.99393692 93.40492302 -54.1875 100.375 C-66.33949435 108.24235615 -79.61230808 114.79809738 -94.5625 111.75 C-98.66928018 110.1922558 -102.27344113 108.75227633 -105.1875 105.375 C-106.22561559 102.46716009 -106.23950117 100.54707128 -106.1875 97.375 C-104.1875 95.375 -104.1875 95.375 -100.4375 95.125 C-97.69540351 95.18396982 -95.94677189 95.45873152 -93.3125 96.375 C-86.35010856 98.60296526 -79.85709412 97.97879969 -73.35546875 94.69921875 C-65.04765235 89.62471468 -60.64217509 83.92094878 -58.1875 74.5625 C-57.70351923 69.12040516 -60.10930673 64.28776076 -62.1875 59.375 C-62.85614702 57.70912684 -63.52342454 56.04270081 -64.1875 54.375 C-63.42566406 54.09527344 -62.66382813 53.81554687 -61.87890625 53.52734375 C-48.51729305 48.33950142 -38.55270086 40.23681713 -32.36328125 27.15234375 C-31.05110253 24.05281195 -29.9016618 20.91249985 -28.75 17.75 C-25.49653489 9.18824972 -21.78992968 3.35456397 -13.4140625 -0.77734375 C-8.48210689 -2.6549479 -4.70188423 -2.05598997 0 0 Z " fill="#FFFFFF" transform="translate(586.1875,540.625)"/>
<path d="M0 0 C0.69287109 0.32935547 1.38574219 0.65871094 2.09960938 0.99804688 C3.79794948 1.80622251 5.49305769 2.62118377 7.1875 3.4375 C5.54072649 6.73104702 1.94022482 7.17565551 -1.375 8.3125 C-2.13353271 8.57716064 -2.89206543 8.84182129 -3.67358398 9.11450195 C-10.07803528 11.29706892 -16.53543183 12.97789758 -23.12890625 14.48046875 C-25.81422296 15.17813852 -28.20188509 15.92708418 -30.765625 16.92578125 C-34.78050855 18.47966385 -38.79697333 19.52635102 -43 20.4375 C-43.76103027 20.60483643 -44.52206055 20.77217285 -45.30615234 20.94458008 C-54.72989783 22.94300822 -64.26406914 24.20313658 -73.8125 25.4375 C-74.52696289 25.53683838 -75.24142578 25.63617676 -75.97753906 25.73852539 C-80.1185818 26.29939454 -84.13553458 26.54746552 -88.3125 26.5 C-89.3540625 26.49097656 -90.395625 26.48195313 -91.46875 26.47265625 C-92.62890625 26.45525391 -92.62890625 26.45525391 -93.8125 26.4375 C-92.45237648 21.98618666 -90.67825572 20.00201957 -86.8125 17.4375 C-77.67379107 13.41007896 -66.88925059 9.4375 -56.8125 9.4375 C-56.8125 8.7775 -56.8125 8.1175 -56.8125 7.4375 C-44.1573048 3.84681543 -31.51327048 0.2597918 -18.7265625 -2.8359375 C-10.92698207 -4.78060501 -7.12980485 -3.44550378 0 0 Z " fill="#FEFEFE" transform="translate(378.8125,575.5625)"/>
<path d="M0 0 C0.59748047 0.37705078 1.19496094 0.75410156 1.81054688 1.14257812 C3.27386577 2.06739566 4.73129523 3.00152065 6.1875 3.9375 C3.7147734 7.6465899 2.33506638 7.80669518 -1.859375 9.09375 C-3.09816406 9.47660156 -4.33695312 9.85945312 -5.61328125 10.25390625 C-6.26377441 10.44871582 -6.91426758 10.64352539 -7.58447266 10.84423828 C-9.51717562 11.42390604 -11.44423517 12.02228539 -13.37109375 12.62109375 C-21.77730799 15.18701937 -30.19645122 17.21804861 -38.8125 18.9375 C-40.40239981 19.27708137 -41.99225166 19.61688749 -43.58203125 19.95703125 C-56.53610225 22.57935034 -63.64030341 20.87931368 -75.1875 14.69140625 C-77.8125 12.9375 -77.8125 12.9375 -78.8125 9.9375 C-74.64610771 9.04038766 -70.4793543 8.14496384 -66.3125 7.25 C-64.41624878 6.84225342 -64.41624878 6.84225342 -62.48168945 6.42626953 C-56.37146856 5.11570691 -50.25967488 3.81649824 -44.13671875 2.56640625 C-42.09114228 2.14845491 -40.04556924 1.73048675 -38 1.3125 C-37.01797607 1.11229248 -36.03595215 0.91208496 -35.02416992 0.70581055 C-28.16222491 -0.71737747 -21.44578756 -2.43398634 -14.73828125 -4.4609375 C-8.72184519 -5.69796174 -4.94986291 -3.19506201 0 0 Z " fill="#FEFEFE" transform="translate(346.8125,559.0625)"/>
<path d="M0 0 C8.0941414 -0.13709202 15.30164447 1.92417815 21.65380859 7.06640625 C24.7849497 10.11057122 25.90084475 12.55530546 26.76318359 16.7421875 C26.93301758 17.55212158 27.10285156 18.36205566 27.27783203 19.1965332 C27.4019043 19.81359131 27.52597656 20.43064941 27.65380859 21.06640625 C0.80652637 22.12309819 0.80652637 22.12309819 -9.34619141 22.25390625 C-10.43931641 22.26808594 -11.53244141 22.28226563 -12.65869141 22.296875 C-15.51349278 22.05205918 -16.9362771 21.5745481 -19.34619141 20.06640625 C-20.53466797 18.27880859 -20.53466797 18.27880859 -21.48681641 16.15234375 C-21.83486328 15.39179687 -22.18291016 14.63125 -22.54150391 13.84765625 C-22.88955078 13.05359375 -23.23759766 12.25953125 -23.59619141 11.44140625 C-24.14146484 10.23871094 -24.14146484 10.23871094 -24.69775391 9.01171875 C-25.59195621 7.03506102 -26.4705946 5.05137571 -27.34619141 3.06640625 C-24.83458419 0.55479904 -23.88106998 0.77355062 -20.40087891 0.65234375 C-19.40572266 0.61367188 -18.41056641 0.575 -17.38525391 0.53515625 C-16.34111328 0.50421875 -15.29697266 0.47328125 -14.22119141 0.44140625 C-12.68978516 0.38339844 -12.68978516 0.38339844 -11.12744141 0.32421875 C-7.41878728 0.19074534 -3.70948644 0.10499275 0 0 Z " fill="#FFFFFF" transform="translate(212.34619140625,578.93359375)"/>
<path d="M0 0 C0.66 0.66 1.32 1.32 2 2 C1.88011029 7.99448528 -0.30249152 12.41548814 -4 17 C-7.29265592 20.05913422 -9.4720303 20.34516543 -13.91015625 20.2109375 C-15.06273926 20.18354492 -16.21532227 20.15615234 -17.40283203 20.12792969 C-18.58989746 20.08571289 -19.77696289 20.04349609 -21 20 C-22.68198486 19.96374512 -22.68198486 19.96374512 -24.39794922 19.92675781 C-27.74574137 19.85157041 -31.09093741 19.7422176 -34.4375 19.625 C-35.56865234 19.5940625 -36.69980469 19.563125 -37.86523438 19.53125 C-43.23663263 19.34155966 -47.99138491 19.17304993 -53 17 C-50.53855242 9.73872964 -48.13260346 4.59522526 -41 1 C-37.74536133 0.45996094 -37.74536133 0.45996094 -34.08203125 0.234375 C-33.42474533 0.19185608 -32.76745941 0.14933716 -32.09025574 0.10552979 C-30.70305187 0.01872363 -29.31542756 -0.06158129 -27.92749023 -0.13574219 C-25.83509456 -0.24877938 -23.74510553 -0.3843626 -21.65429688 -0.5234375 C-6.16861497 -1.48712834 -6.16861497 -1.48712834 0 0 Z " fill="#FFFFFF" transform="translate(614,592)"/>
<path d="M0 0 C1.03125 -0.01417969 2.0625 -0.02835938 3.125 -0.04296875 C5.96545203 0.18473053 7.59107948 0.72245939 10 2.1875 C9.484375 2.661875 8.96875 3.13625 8.4375 3.625 C6.24971333 7.52496753 7.11809129 10.91995868 8 15.1875 C8.350625 16.198125 8.70125 17.20875 9.0625 18.25 C10.33526945 22.23801095 10.39967323 24.99093105 10 29.1875 C8.20636089 31.9975346 6.98119065 33.69690468 4 35.1875 C-0.95482094 35.73110446 -4.87125852 35.75187074 -9.375 33.5 C-14.95654085 28.5829283 -17.63245845 24.23045705 -18.3125 16.75 C-17.82846238 11.23197108 -16.13548075 7.52678499 -12.5625 3.3125 C-8.55265555 -0.01273686 -5.11984381 0.03199902 0 0 Z " fill="#FFFFFF" transform="translate(170,572.8125)"/>
<path d="M0 0 C4.15704523 4.78690056 6.47646857 8.96184876 6.0625 15.4375 C5.11328927 21.55568005 3.09503221 25.57880875 -1.625 29.75 C-5.76534745 31.78111384 -9.32526244 32.59777355 -13.9375 32.375 C-18.03963689 30.88331386 -19.50818209 30.01897687 -21.9375 26.375 C-22.87925478 17.42832957 -19.01743365 10.12687393 -14.9375 2.375 C-15.9275 1.735625 -16.9175 1.09625 -17.9375 0.4375 C-18.9275 -0.243125 -19.9175 -0.92375 -20.9375 -1.625 C-20.9375 -1.955 -20.9375 -2.285 -20.9375 -2.625 C-13.7555989 -4.22097802 -6.50531304 -3.59868381 0 0 Z " fill="#FFFFFF" transform="translate(642.9375,588.625)"/>
<path d="M0 0 C3.10742423 1.46818668 5.90471739 3.20025 8.75 5.125 C9.94882812 5.93324219 9.94882812 5.93324219 11.171875 6.7578125 C11.77515625 7.16773438 12.3784375 7.57765625 13 8 C12.67 9.32 12.34 10.64 12 12 C8.61579359 12 6.57409288 11.50204985 4.0078125 9.2578125 C0.40589516 5.30872241 0.40589516 5.30872241 -1 3 C-0.67 2.01 -0.34 1.02 0 0 Z " fill="#BB272C" transform="translate(610,620)"/>
<path d="M0 0 C0.99 0.33 1.98 0.66 3 1 C-0.10600382 6.25631416 -3.3122493 9.83544715 -9.375 11.75 C-10.179375 11.87375 -10.179375 11.87375 -11 12 C-9.60991124 6.74855359 -6.1957125 4.12699328 -2 1 C-1.34 0.67 -0.68 0.34 0 0 Z " fill="#BB252A" transform="translate(189,608)"/>
</svg>
